<?xml version="1.0" encoding="utf-8"?>
<!-- Generator: Adobe Illustrator 24.2.1, SVG Export Plug-In . SVG Version: 6.00 Build 0)  -->
<svg version="1.1" id="Слой_1" xmlns="http://www.w3.org/2000/svg" xmlns:xlink="http://www.w3.org/1999/xlink" x="0px" y="0px"
	 viewBox="0 0 332.94 411.57" style="enable-background:new 0 0 332.94 411.57;" xml:space="preserve">
<path d="M135.03,40.56c-1.77,1.4-3.72,2.41-4.95,3.99c-7.96,10.21-16.17,20.26-23.49,30.91c-7.31,10.65-13.9,21.82-20.43,32.98
	c-12.36,21.14-23.25,42.94-30.06,66.64c-2.54,8.85-6.73,17.23-9.2,26.1c-3.23,11.62-6.08,23.42-8.07,35.31
	c-7.98,47.61-7.01,95.69-6.98,143.71c0,1.77,0.63,4.12-0.25,5.2c-1.85,2.26-4.51,3.86-6.85,5.73c-1.39-1.94-3.96-3.86-3.99-5.82
	c-0.28-19.51-0.47-39.03-0.01-58.53c0.44-18.37,1.49-36.73,2.65-55.06c0.93-14.75,2.12-29.39,7.22-43.61
	c3.55-9.89,4.57-20.66,7.52-30.81c4.15-14.28,8.31-28.63,13.79-42.43c6.06-15.28,13.34-30.11,20.61-44.88
	c3.86-7.85,8.39-15.45,13.38-22.64c11.62-16.75,23.57-33.28,35.68-49.68c2.56-3.47,6.04-6.56,9.71-8.81
	c3.27-2.01,6.85-1.83,9.79,2.11c9.68,12.97,9.82,27.25,3.66,40.9c-6,13.29-14.49,25.45-21.86,38.13c-1.37,2.36-2.58,4.81-3.86,7.22
	c0.46,0.4,0.93,0.8,1.39,1.19c3.09-2.23,6.62-4.04,9.18-6.76c15.91-16.84,35.32-28.9,55.37-39.81c12.11-6.59,24.98-11.9,39.24-12.44
	c5.65-0.21,7.46,1.72,7.87,7.56c1.23,17.36-6.53,28.75-21.48,36.43c-18.18,9.33-32.78,23.54-48.16,36.58
	c-5.83,4.95-10.28,11.53-14.62,18.85c3.34-1.44,6.85-2.59,9.99-4.38c23.02-13.06,47.25-22.42,73.92-24.15
	c15.63-1.02,31.28-1.67,46.93-2.25c3.27-0.12,6.9,0.12,9.74,1.48c2.03,0.98,4.41,4.23,4.25,6.28
	c-1.17,15.12-11.14,23.71-26.14,26.25c-13.64,2.3-26.96,6.59-40.32,10.38c-8.63,2.45-17.06,5.58-25.58,8.4c0,0.65,0,1.3,0.01,1.95
	c2.98,0.16,6.01,0.7,8.95,0.41c15.44-1.52,30.9-0.51,44.67,6.34c11.88,5.91,23.08,13.83,33.13,22.55
	c7.93,6.88,14.11,15.99,20.2,24.72c3.72,5.34,1.97,9.58-4.28,10.93c-8.91,1.93-18.04,3.16-27.14,3.72
	c-7.85,0.49-13.37-4.58-18.72-9.87c-13.23-13.05-28.57-21.06-47.93-18.56c-17.58,2.28-30.3,12.12-40.07,26.16
	c-1.2,1.72-0.85,5.76,0.38,7.75c10.2,16.52,24.96,26.08,44.58,26.55c9.88,0.24,19.84-0.53,28.97-5.44c6.18-3.33,12.56-6.32,19-9.14
	c12.52-5.49,25.09-4.22,37.37,0.76c8.21,3.33,8.66,6.98,3.02,13.89c-14.28,17.49-33.23,28.74-53.35,37.35
	c-16.24,6.94-34.17,8.83-51.97,8.02c-17.22-0.78-30.55,12.46-29.4,28.94c0.68,9.71,0.02,19.5,0.09,29.26
	c0.02,3.26-0.48,5.77-4.51,5.78c-3.92,0.01-4.75-2.37-4.74-5.68c0.04-13.08-0.83-26.23,0.23-39.23
	c1.16-14.24,8.74-23.82,25.01-26.27c10.7-1.62,21.62-1.69,32.36-3.04c17.32-2.18,32.7-9.8,48.1-17.52
	c9.25-4.64,17.07-10.71,23.57-18.61c1.11-1.35,1.52-3.29,2.25-4.95c-1.52-0.66-2.99-1.74-4.57-1.92
	c-9.21-1.08-17.91,0.03-25.96,5.35c-15.57,10.3-32.52,15.8-51.42,13.08c-19.86-2.86-35.49-13.15-46.49-29.45
	c-7.63-11.31-5.57-18.81,4.97-30.27c15.05-16.36,34.05-24.81,56.8-22.3c13.01,1.44,24.12,7.33,34.09,15.69
	c5.05,4.23,10.24,8.38,15.79,11.91c8.02,5.1,14.55,4.18,21.56-2.14c-17.84-27.1-43.4-42.46-75.2-45.07
	c-11.91-0.98-24.73,3.74-36.49,7.74c-11.11,3.78-21.27,10.3-32.12,14.98c-2.87,1.23-7.96,1.45-9.93-0.27
	c-3.68-3.22-0.26-6.88,2.44-9.38c12.33-11.38,25.42-21.7,41.01-28.43c9.92-4.28,19.45-9.7,29.67-12.99
	c12.08-3.89,24.69-6.15,37.12-8.9c6.24-1.38,12.66-1.99,18.86-3.52c6.59-1.63,8.95-7.03,10.56-13.46c-1.3-0.39-2.28-0.92-3.28-0.96
	c-25.51-0.85-50.86-0.52-75.02,9.55c-10.94,4.56-22.71,7.48-32.99,13.16c-13.18,7.29-25.33,16.48-37.71,25.16
	c-4.26,2.99-7.76,7.06-11.83,10.36c-1.39,1.13-4.04,2.44-5.1,1.85c-1.53-0.85-2.89-3.34-2.94-5.17c-0.07-2.71,0.35-5.96,1.82-8.1
	c7.09-10.29,14.28-20.53,22.03-30.33c15.09-19.07,32.92-35.32,52.92-49.15c7.03-4.86,14.61-9.01,21.17-14.41
	c4.42-3.63,7.76-8.72,11-13.54c0.88-1.32,0.36-4.84-0.82-5.92c-1.14-1.04-4.3-0.93-6.01-0.12c-13.69,6.41-28.04,11.88-40.64,20.02
	c-13.89,8.98-26.27,20.35-39.05,30.99c-5.19,4.32-10.34,8.99-14.39,14.34c-10.14,13.41-19.65,27.3-29.41,41
	c-1.02,1.44-1.69,3.55-3.06,4.21c-2.1,1-4.87,1.7-6.96,1.12c-0.98-0.27-1.99-4.24-1.34-5.87c3.91-9.81,7.9-19.62,12.61-29.05
	c7.93-15.87,16.25-31.55,24.76-47.12c5.56-10.16,11.69-20.02,17.69-29.94C140.22,60.95,142.12,51.51,135.03,40.56z"/>
<path d="M217.93,275.99c-13.18,0.12-24-9.82-23.92-21.95c0.09-14,9.73-24.18,22.11-24.96c17.88-1.13,25.24,11.41,24.85,23.27
	C240.54,265.77,236.19,277.17,217.93,275.99z M204.71,252.61c-0.22,6.37,6.99,13.93,13.36,14.02c6.31,0.08,13.7-7.1,13.9-13.53
	c0.21-6.42-7.27-13.9-14.1-14.09C212.23,238.85,204.92,246.4,204.71,252.61z"/>
</svg>
